<?xml version="1.0" encoding="UTF-8"?>
<svg width="32px" height="32px" viewBox="0 0 32 32" version="1.1" xmlns="http://www.w3.org/2000/svg">
    <title>URL Shortener</title>
    <g stroke="none" stroke-width="1" fill="none" fill-rule="evenodd">
        <path d="M16,0 C24.8366,0 32,7.16344 32,16 C32,24.8366 24.8366,32 16,32 C7.16344,32 0,24.8366 0,16 C0,7.16344 7.16344,0 16,0 Z" fill="#3182CE"/>
        <path d="M10,10 L22,10 C23.1046,10 24,10.8954 24,12 L24,20 C24,21.1046 23.1046,22 22,22 L10,22 C8.89543,22 8,21.1046 8,20 L8,12 C8,10.8954 8.89543,10 10,10 Z" fill="#FFFFFF"/>
        <path d="M14,14 L18,14 C19.1046,14 20,14.8954 20,16 C20,17.1046 19.1046,18 18,18 L14,18 C12.8954,18 12,17.1046 12,16 C12,14.8954 12.8954,14 14,14 Z" fill="#3182CE"/>
    </g>
</svg>
